<?xml version="1.0" encoding="UTF-8" standalone="no"?>
<svg
   xmlns:dc="http://purl.org/dc/elements/1.1/"
   xmlns:cc="http://creativecommons.org/ns#"
   xmlns:rdf="http://www.w3.org/1999/02/22-rdf-syntax-ns#"
   xmlns:svg="http://www.w3.org/2000/svg"
   xmlns="http://www.w3.org/2000/svg"
   xmlns:sodipodi="http://sodipodi.sourceforge.net/DTD/sodipodi-0.dtd"
   xmlns:inkscape="http://www.inkscape.org/namespaces/inkscape"
   width="100%"
   height="100%"
   viewBox="0 0 90 102"
   xml:space="preserve"
   version="1.1"
   id="svg3698"
   sodipodi:docname="clock.svg"
   inkscape:version="0.92.1 r15371"><metadata
   id="metadata3704"><rdf:RDF><cc:Work
       rdf:about=""><dc:format>image/svg+xml</dc:format><dc:type
         rdf:resource="http://purl.org/dc/dcmitype/StillImage" /></cc:Work></rdf:RDF></metadata><defs
   id="defs3702" /><sodipodi:namedview
   pagecolor="#ffffff"
   bordercolor="#666666"
   borderopacity="1"
   objecttolerance="10"
   gridtolerance="10"
   guidetolerance="10"
   inkscape:pageopacity="0"
   inkscape:pageshadow="2"
   inkscape:window-width="1035"
   inkscape:window-height="566"
   id="namedview3700"
   showgrid="false"
   inkscape:zoom="6.0588235"
   inkscape:cx="45"
   inkscape:cy="44.398058"
   inkscape:window-x="104"
   inkscape:window-y="104"
   inkscape:window-maximized="0"
   inkscape:current-layer="svg3698" />
    
  <desc
   id="desc3680">
    Rework of https://openclipart.org/detail/166606/orologio icon to keep time
  
    Jay Nick
    STEAMcoded.org
  </desc>

  <script
   type="application/x-javascript"
   id="script3682"><![CDATA[
    var Clock = new function()
    {
      window.addEventListener("load", function(e) {init(); }, false);

      function init()
      {
      	// If script running, make the hour hand smaller so it is easier to distinguish
      	var node = document.getElementById("hours");
      	node.setAttribute("y",10);
        node.setAttribute("height",25);
      	setClock();
      }
      function setClock()
      {
        var dt;
        var sec;
        var min;
        var hr;
        var deg;
        var node;
        
        dt = new Date();
        min = dt.getMinutes();
        sec = dt.getSeconds();
        
        deg = (360/3600)*(60*min+sec);
        node = document.getElementById("minutes");
        node.setAttribute("transform","rotate("+deg+",3,32)");
        
        hr = dt.getHours();
        deg = 30*hr + 30/60*min;
        var node = document.getElementById("hours");
        node.setAttribute("transform","rotate("+deg+",3,32)");
        
        setTimeout(setClock,(10-dt.getSeconds()%10)*1000);
      }
    }();
    ]]>
  </script>

  <g
   transform="translate(1,1)"
   id="g3696"
   style="fill:#c8b7b7;opacity:0.26">
    <path
   d="m6.755 25.72c7.382-9.081 18.004-15.425 30.093-17.245l-5.514-6.871c-2.868-2.967-9.069-1.697-16.868 2.807-7.799 4.503-11.998 9.237-10.864 13.204l3.153 8.105z"
   id="path3684"
   style="fill:#c8b7b7" />
    <path
   style="display:none;fill:#c8b7b7"
   d="m44.03 23.948c-1.658 0-3.002 1.344-3.002 3.002v26.018h-26.018c-1.658 0-3.002 1.344-3.002 3.002s1.344 3.002 3.002 3.002h29.02c1.658 0 3.002-1.344 3.002-3.002v-29.02c0-1.658-1.344-3.002-3.002-3.002z"
   id="path3686" />
    <path
   d="m81.306 25.72c-7.382-9.081-18.004-15.425-30.093-17.245l5.514-6.871c2.868-2.967 9.069-1.697 16.868 2.807 7.799 4.503 11.998 9.237 10.864 13.204l-3.153 8.105z"
   id="path3688"
   style="fill:#c8b7b7" />
    <path
   d="m44.03 11.939c-24.278 0-44.03 19.752-44.03 44.03 0 24.28 19.752 44.031 44.03 44.031s44.03-19.752 44.03-44.031c0.001-24.278-19.751-44.03-44.03-44.03zm0 82.057c-20.968 0-38.026-17.059-38.026-38.026s17.058-38.027 38.026-38.027 38.026 17.059 38.026 38.026-17.058 38.027-38.026 38.027z"
   id="path3690"
   style="fill:#c8b7b7" />

    <g
   transform="translate(41.03,23.95)"
   id="g3694"
   style="fill:#c8b7b7">
      <rect
   id="hours"
   y="0"
   width="6"
   height="35"
   rx="3"
   style="fill:#c8b7b7" />
      <rect
   id="minutes"
   width="6"
   height="35"
   rx="3"
   transform="rotate(-90,3,32)"
   style="fill:#c8b7b7" />
    </g>
  </g>
</svg>